<svg width="18" height="17" viewBox="0 0 18 17" fill="none" xmlns="http://www.w3.org/2000/svg">
<path fill-rule="evenodd" clip-rule="evenodd" d="M3.1665 0.5H14.8332C16.2139 0.5 17.3332 1.61929 17.3332 3V11.3333C17.3332 12.714 16.2139 13.8333 14.8332 13.8333H6.12484C5.964 13.8271 5.80481 13.8677 5.6665 13.95L1.92484 16.2167C1.79621 16.293 1.64941 16.3333 1.49984 16.3333C1.35668 16.3329 1.21605 16.2956 1.0915 16.225C0.829432 16.0777 0.667022 15.8006 0.666504 15.5V3C0.666504 1.61929 1.78579 0.5 3.1665 0.5ZM14.8332 12.1667C15.2934 12.1667 15.6665 11.7936 15.6665 11.3333V3C15.6665 2.53976 15.2934 2.16667 14.8332 2.16667H3.1665C2.70627 2.16667 2.33317 2.53976 2.33317 3V14.025L4.83317 12.525C5.22308 12.2902 5.66969 12.1663 6.12484 12.1667H14.8332Z" fill="black"/>
</svg>
